<?xml version="1.0" encoding="UTF-8"?>
<svg version="1.1" xmlns="http://www.w3.org/2000/svg" width="500" height="500">
<path d="M0 0 C1.76254623 -0.00209976 1.76254623 -0.00209976 3.56069946 -0.00424194 C22.05607438 0.01387363 39.41986525 1.08316051 57.4375 5.4375 C58.2742627 5.62441406 59.11102539 5.81132813 59.97314453 6.00390625 C93.64623694 13.5819308 128.92724383 30.29363897 155.4375 52.4375 C155.98921875 52.87320313 156.5409375 53.30890625 157.109375 53.7578125 C158.58873163 54.93991523 160.01757893 56.18462847 161.4375 57.4375 C161.4375 58.0975 161.4375 58.7575 161.4375 59.4375 C162.02539307 59.70393311 162.61328613 59.97036621 163.21899414 60.24487305 C165.48443219 61.46272986 167.06952601 62.75721108 168.93359375 64.51953125 C169.89555664 65.42348633 169.89555664 65.42348633 170.87695312 66.34570312 C171.86598633 67.28833008 171.86598633 67.28833008 172.875 68.25 C173.53048828 68.86681641 174.18597656 69.48363281 174.86132812 70.11914062 C178.44563829 73.50212545 181.96870021 76.93571637 185.4375 80.4375 C185.97189697 80.95062744 186.50629395 81.46375488 187.05688477 81.99243164 C191.60615573 86.40565906 195.50007488 91.13074168 199.3125 96.1875 C199.89257812 96.94160156 200.47265625 97.69570312 201.0703125 98.47265625 C205.30681129 104.04543386 205.30681129 104.04543386 206.4375 107.4375 C207.0975 107.7675 207.7575 108.0975 208.4375 108.4375 C208.4375 109.4275 208.4375 110.4175 208.4375 111.4375 C209.0975 111.4375 209.7575 111.4375 210.4375 111.4375 C210.56125 112.241875 210.685 113.04625 210.8125 113.875 C211.01875 114.720625 211.225 115.56625 211.4375 116.4375 C212.0975 116.7675 212.7575 117.0975 213.4375 117.4375 C215.61622957 120.74681356 217.51544419 124.21732521 219.44775391 127.67529297 C220.39162262 129.355817 221.35739379 131.02398349 222.32421875 132.69140625 C239.31068137 162.97761446 250.43836502 199.55247449 250.67578125 234.37109375 C250.683853 235.5212648 250.69192474 236.67143585 250.70024109 237.85646057 C250.71403581 240.29304523 250.72477846 242.72964883 250.73266602 245.16625977 C250.74408003 247.60837649 250.76435919 250.05047043 250.79418945 252.49243164 C251.056446 274.02237517 249.09478068 294.8413922 243.25 315.625 C242.95520752 316.69194092 242.66041504 317.75888184 242.35668945 318.8581543 C239.23575334 329.75192689 235.10246309 340.12220398 230.4375 350.4375 C230.02564453 351.34935059 229.61378906 352.26120117 229.18945312 353.20068359 C224.14173495 364.2702751 218.71142925 375.01015949 212.4375 385.4375 C211.7775 385.4375 211.1175 385.4375 210.4375 385.4375 C210.4375 386.4275 210.4375 387.4175 210.4375 388.4375 C209.7775 388.4375 209.1175 388.4375 208.4375 388.4375 C208.4375 389.4275 208.4375 390.4175 208.4375 391.4375 C207.7775 391.7675 207.1175 392.0975 206.4375 392.4375 C205.50583524 394.09168029 204.57639897 395.74716505 203.65966797 397.40966797 C201.46572633 401.04987556 198.71416019 404.23990587 196 407.5 C195.43990234 408.18126953 194.87980469 408.86253906 194.30273438 409.56445312 C193.20163057 410.90196661 192.09722318 412.23676844 190.98925781 413.56860352 C190.00297254 414.75645968 189.02245664 415.94914829 188.04980469 417.14819336 C185.72981071 419.99421191 183.38451867 422.52722098 180.5625 424.875 C177.90661987 427.13796902 175.37956894 429.44525156 172.9375 431.9375 C169.28111197 435.65192593 165.38393491 439.03749454 161.4375 442.4375 C160.86580078 442.95223877 160.29410156 443.46697754 159.70507812 443.99731445 C112.81444356 485.91592483 46.92803751 502.48364803 -14.5625 500.4375 C-39.50440436 499.01008109 -64.35948592 493.69926564 -87.5625 484.4375 C-88.42568848 484.09315918 -89.28887695 483.74881836 -90.17822266 483.39404297 C-117.17710139 472.47960263 -142.16059167 458.34776017 -163.5625 438.4375 C-165.11931274 437.00114287 -166.67818505 435.56706741 -168.23828125 434.13427734 C-169.7290996 432.76414869 -171.21622394 431.39000381 -172.703125 430.015625 C-174.68648526 428.22734935 -176.66912763 426.50752656 -178.73046875 424.81640625 C-182.47578709 421.67033884 -185.43927474 418.18986416 -188.5625 414.4375 C-189.03107422 413.88126953 -189.49964844 413.32503906 -189.98242188 412.75195312 C-207.7455801 391.61800833 -221.62732807 368.38011014 -231.70556641 342.61303711 C-232.30339175 341.09531014 -232.91626641 339.58346232 -233.54052734 338.07641602 C-257.45915212 280.02356197 -254.44959183 212.75431076 -231.05859375 155.17578125 C-219.94516668 128.67848036 -204.70562123 98.68653547 -182.5625 79.4375 C-181.9025 79.4375 -181.2425 79.4375 -180.5625 79.4375 C-180.30597656 78.85121826 -180.04945313 78.26493652 -179.78515625 77.66088867 C-178.44941603 75.23185789 -177.02795201 73.74502612 -175 71.86328125 C-174.29093506 71.20030029 -173.58187012 70.53731934 -172.85131836 69.85424805 C-172.0960083 69.15984619 -171.34069824 68.46544434 -170.5625 67.75 C-169.78720947 67.03175049 -169.01191895 66.31350098 -168.21313477 65.57348633 C-166.67836031 64.15364739 -165.14139193 62.73617565 -163.60205078 61.32128906 C-161.97851114 59.82174012 -160.37445222 58.30110648 -158.77734375 56.7734375 C-146.6810372 45.36182755 -132.18854089 37.14386982 -117.5625 29.4375 C-116.89250977 29.08059082 -116.22251953 28.72368164 -115.53222656 28.35595703 C-104.54767491 22.53562093 -93.20115234 17.78898182 -81.5625 13.4375 C-80.81242676 13.15632324 -80.06235352 12.87514648 -79.28955078 12.58544922 C-70.29868722 9.27070669 -61.23245293 6.74993705 -51.875 4.6875 C-50.97354248 4.48874268 -50.07208496 4.28998535 -49.14331055 4.08520508 C-46.28999319 3.48716453 -43.43259301 2.94900865 -40.5625 2.4375 C-39.52407959 2.24986084 -38.48565918 2.06222168 -37.41577148 1.86889648 C-25.00561954 -0.08323275 -12.53482676 -0.00142445 0 0 Z " fill="#FEFEFE" transform="translate(249.5625,-0.4375)"/>
<path d="M0 0 C1.03511719 0.31582031 2.07023438 0.63164063 3.13671875 0.95703125 C13.17067758 4.61196578 24.8757943 11.88181421 32 20 C32 20.66 32 21.32 32 22 C32.5775 22.2475 33.155 22.495 33.75 22.75 C36.34908658 24.19393699 38.07836838 25.73521987 40 28 C40 28.99 40 29.98 40 31 C40.66 31 41.32 31 42 31 C46 36.29411765 46 36.29411765 46 40 C44.2365625 40.8353125 44.2365625 40.8353125 42.4375 41.6875 C39.57349113 43.10692092 37.0405299 44.62629938 34.5 46.5625 C30.90409169 49.25736462 27.21842912 50.49852523 23 52 C22.01 52.99 22.01 52.99 21 54 C19.68 54 18.36 54 17 54 C15.32421875 52.2421875 15.32421875 52.2421875 13.6875 49.875 C5.66373813 38.98317005 -4.95170406 32.61329599 -18.24609375 30.3828125 C-32.3827207 28.41772109 -46.36524165 31.88272673 -58 40 C-58.74507813 40.26941406 -59.49015625 40.53882813 -60.2578125 40.81640625 C-75.85091612 47.54676294 -91.12707211 65.39134445 -97.6875 80.6875 C-98.120625 81.780625 -98.55375 82.87375 -99 84 C-99.95524859 85.91829514 -100.93771506 87.81941813 -101.9375 89.71484375 C-115.88226938 119.70635141 -117.82461727 154.5829875 -107.8671875 185.921875 C-107 189 -107 189 -106.58984375 192.57421875 C-105.9494556 196.29355922 -104.9478381 198.08582349 -102.6875 201.0625 C-100.66808745 203.76458845 -98.79280717 206.34754927 -97.0625 209.25 C-88.58167864 220.55776181 -74.25258071 223.98088506 -61 226 C-47.21664537 227.39085314 -31.19874083 224.92419631 -19 218 C-17.98679688 217.43410156 -16.97359375 216.86820313 -15.9296875 216.28515625 C-8.48901382 211.92606088 -2.16383324 207.01405785 4 201 C4.53496094 200.49210938 5.06992188 199.98421875 5.62109375 199.4609375 C7.50617054 197.63739141 9.13965007 195.80862768 10.6875 193.6875 C11.120625 193.130625 11.55375 192.57375 12 192 C12.66 192 13.32 192 14 192 C14.103125 191.4225 14.20625 190.845 14.3125 190.25 C15.09792798 187.67950842 16.30504197 186.06342716 18 184 C21.40421013 185.50690953 23.95740009 187.48713047 26.75 189.9375 C27.54921875 190.62714844 28.3484375 191.31679687 29.171875 192.02734375 C31 194 31 194 31 197 C31.87398438 197.12181641 31.87398438 197.12181641 32.765625 197.24609375 C35.68084261 198.22972487 36.80510492 199.70618481 38.75 202.0625 C39.36359375 202.79597656 39.9771875 203.52945313 40.609375 204.28515625 C41.06828125 204.85105469 41.5271875 205.41695312 42 206 C39.66252427 211.26258503 37.33676347 215.08633541 33 219 C29.99537378 221.92555711 27.20348851 224.92411642 24.5 228.125 C21.89281458 231.14503691 19.53139734 233.09113657 16 235 C15.278125 235.721875 14.55625 236.44375 13.8125 237.1875 C13.214375 237.785625 12.61625 238.38375 12 239 C11.34 239 10.68 239 10 239 C10 239.66 10 240.32 10 241 C9.27554688 241.2578125 8.55109375 241.515625 7.8046875 241.78125 C4.87842815 243.05282788 2.66758558 244.58290672 0.125 246.5 C-3.89412565 249.37503826 -7.15053849 250.87423215 -12 252 C-13.63177356 252.67126471 -15.25632263 253.36024305 -16.875 254.0625 C-21.6434372 256.02984602 -25.86582134 256.66876267 -31 257 C-31 257.66 -31 258.32 -31 259 C-45.19 259 -59.38 259 -74 259 C-74 258.34 -74 257.68 -74 257 C-74.928125 257.0825 -75.85625 257.165 -76.8125 257.25 C-82.26189016 257.25 -87.02783048 255.03375058 -92 253 C-93.20076172 252.53207031 -93.20076172 252.53207031 -94.42578125 252.0546875 C-99.20738483 250.08919242 -103.11016391 247.64867944 -107.15625 244.4375 C-109.16454367 242.82147331 -109.16454367 242.82147331 -112.1875 241 C-114.52546026 239.33745048 -115.87087302 238.10749903 -117.625 235.9375 C-119.74692754 233.03416146 -119.74692754 233.03416146 -122.0625 231.5625 C-124.36979102 229.70178143 -125.49343478 227.59324041 -126.87109375 225 C-128.09102534 222.83873711 -129.48940668 220.88973853 -130.9375 218.875 C-135.26417629 212.47856507 -139 204.7963358 -139 197 C-139.66 197 -140.32 197 -141 197 C-141.16435547 195.87078125 -141.16435547 195.87078125 -141.33203125 194.71875 C-142.16170771 189.16059228 -143.05314546 183.63685975 -144.16357422 178.12695312 C-145.83054913 169.76147316 -146.74630379 161.53742914 -147 153 C-147.04882324 151.6687207 -147.04882324 151.6687207 -147.09863281 150.31054688 C-147.5378263 137.04601621 -146.74258985 125.04073146 -143.50830078 112.17431641 C-142.85230386 109.36821239 -142.40217244 106.54739425 -141.95019531 103.70263672 C-140.74141549 96.21219476 -138.58489483 89.90453294 -135.40234375 83.0859375 C-134.04465789 80.09827224 -133.02777984 77.11294636 -132 74 C-131.32466564 72.52609508 -130.61984233 71.06502851 -129.875 69.625 C-129.52179688 68.93664062 -129.16859375 68.24828125 -128.8046875 67.5390625 C-128.53914063 67.03117187 -128.27359375 66.52328125 -128 66 C-127.34 66 -126.68 66 -126 66 C-125.84869629 65.4423999 -125.69739258 64.8847998 -125.54150391 64.31030273 C-123.7578751 58.32763554 -121.22614724 53.9382366 -117.375 49.0625 C-116.84229492 48.3722876 -116.30958984 47.6820752 -115.76074219 46.97094727 C-109.18863869 38.54095308 -102.27826105 30.78571213 -94 24 C-93.18273437 23.31808594 -92.36546875 22.63617188 -91.5234375 21.93359375 C-87.41196491 18.56119252 -83.42906647 15.58622676 -78.76538086 12.99780273 C-77.13178306 12.07448449 -75.54173046 11.07524371 -73.95703125 10.0703125 C-64.2004699 4.03457641 -54.08408316 0.80368846 -43 -2 C-42.23252441 -2.19577637 -41.46504883 -2.39155273 -40.67431641 -2.59326172 C-26.86053203 -5.90987176 -13.43689228 -4.10369014 0 0 Z " fill="#403996" transform="translate(202,55)"/>
<path d="M0 0 C12.459937 -0.87952497 25.84692796 1.42776786 37.06640625 7.0703125 C39.17273612 8.08305292 41.2652886 8.75753653 43.5 9.4375 C48.38561831 11.00939459 52.61191674 13.36872565 57 16 C57.64582031 16.36867188 58.29164063 16.73734375 58.95703125 17.1171875 C64.19662287 20.21185465 68.80144111 23.97283222 73.4609375 27.875 C74.88378204 29.06581143 76.31794847 30.24436214 77.7890625 31.375 C81.75332072 34.42769083 84.54475224 38.11042872 87.484375 42.109375 C88.87188344 44.11016822 88.87188344 44.11016822 91 45 C91.68429635 46.64231123 92.36485483 48.28627134 93.02734375 49.9375 C94.08119701 52.17217679 95.36257924 54.00115363 96.8125 56 C101.05605193 62.13780578 103.39354851 69.05993037 106 76 C106.54527344 77.28777344 106.54527344 77.28777344 107.1015625 78.6015625 C113.96877342 96.93402991 110.73725206 120.55287814 102.98828125 137.90234375 C102.66214844 138.59457031 102.33601563 139.28679687 102 140 C101.34 140 100.68 140 100 140 C99.79375 140.99 99.5875 141.98 99.375 143 C98.22655042 147.11597624 95.9895665 150.00320452 93.33984375 153.30078125 C91.93053541 154.97006893 91.93053541 154.97006893 91 157 C90.34 157 89.68 157 89 157 C88.7306665 157.59385498 88.46133301 158.18770996 88.18383789 158.79956055 C87.0011867 160.99779424 85.81195318 162.44604734 84.05859375 164.20703125 C83.47956299 164.7901709 82.90053223 165.37331055 82.30395508 165.97412109 C81.6880249 166.58078613 81.07209473 167.18745117 80.4375 167.8125 C79.80416748 168.43979004 79.17083496 169.06708008 78.51831055 169.71337891 C73.93291493 174.20240587 69.22026602 178.26191665 64 182 C63.175 182.63035156 62.35 183.26070312 61.5 183.91015625 C55.31692202 188.57442583 48.91756607 192.48040624 42.1640625 196.23828125 C40.21151715 197.32543921 38.27583872 198.44439615 36.37109375 199.61328125 C34.09391565 200.94507404 31.89813225 201.93404756 29.4375 202.875 C25.51856637 204.38993106 21.66547367 206.01208413 17.8125 207.6875 C13.4740686 209.50809175 9.69031416 210.46902104 5 211 C3.6000179 211.4330744 2.20979716 211.89836911 0.828125 212.38671875 C-24.81114816 221.08941173 -53.16824905 220.48187638 -79 213 C-80.80791016 212.49919922 -80.80791016 212.49919922 -82.65234375 211.98828125 C-89.83664684 209.79693012 -96.36059151 206.47017242 -103 203 C-104.45741271 202.31055055 -105.91562878 201.62279409 -107.375 200.9375 C-111.03708005 199.117786 -113.88588386 196.65031161 -117 194 C-118.19348852 193.28704078 -119.40245043 192.5993899 -120.625 191.9375 C-123.66676208 190.19130325 -125.76791073 188.67850713 -128 186 C-128 185.34 -128 184.68 -128 184 C-128.99 184 -129.98 184 -131 184 C-132.46484375 182.390625 -132.46484375 182.390625 -133.9375 180.25 C-135.51117116 177.98391353 -136.98250898 176.01686758 -138.97265625 174.09765625 C-141.33342319 171.655013 -142.83066476 169.14298216 -144.5 166.1875 C-145.0671875 165.19105469 -145.634375 164.19460938 -146.21875 163.16796875 C-146.8065625 162.12253906 -147.394375 161.07710937 -148 160 C-148.69609375 158.88367188 -149.3921875 157.76734375 -150.109375 156.6171875 C-152.21933921 152.90591117 -153.10835582 149.13090025 -153.75 144.9375 C-153.87213867 144.17453613 -153.99427734 143.41157227 -154.12011719 142.62548828 C-155.89381367 130.24190713 -155.78816475 117.37294642 -154 105 C-153.34 105 -152.68 105 -152 105 C-151.99742187 104.33355469 -151.99484375 103.66710937 -151.9921875 102.98046875 C-151.65978547 95.05822047 -149.20726525 89.65185362 -145 83 C-144.34 83 -143.68 83 -143 83 C-143 83.66 -143 84.32 -143 85 C-142.46632813 85.13535156 -141.93265625 85.27070313 -141.3828125 85.41015625 C-135.52605608 87.10233328 -131.31918289 89.73703285 -126.44140625 93.34765625 C-123.09603775 95.61180165 -119.83979113 96.79117687 -116 98 C-116.73166404 101.24675919 -117.81595441 104.26688033 -119 107.375 C-122.93189331 118.1877066 -124.02799767 131.02374129 -119.20068359 141.78125 C-118.23215842 143.81197984 -117.22220393 145.81470706 -116.1875 147.8125 C-115.85621094 148.45936768 -115.52492187 149.10623535 -115.18359375 149.77270508 C-112.97357361 153.84583594 -110.6745716 156.24839772 -107 159 C-106.38640625 159.80179688 -105.7728125 160.60359375 -105.140625 161.4296875 C-102.4001574 164.72024896 -99.31404585 166.79876648 -95.75 169.125 C-95.11964844 169.55425781 -94.48929688 169.98351562 -93.83984375 170.42578125 C-89.40366659 173.36215106 -85.00786452 175.26142546 -80 177 C-77.89109875 177.86352643 -75.78643102 178.73751425 -73.6875 179.625 C-53.3986159 188.19776793 -21.22406368 186.68137483 -0.8984375 178.796875 C1.1379976 177.94105671 3.16819754 177.07022748 5.19140625 176.18359375 C7.65483981 175.14545694 10.06629641 174.32246644 12.625 173.5625 C17.02532659 172.1620344 20.68567905 169.93049582 24.578125 167.4765625 C26.78070894 166.1336968 28.97396469 165.01885279 31.3125 163.9375 C34.9136934 162.2054631 37.20778367 159.8656957 40 157 C42 156 44 155 46 154 C47.68615782 152.35305515 49.35570171 150.68873879 51 149 C51.99 148.67 52.98 148.34 54 148 C56.58135915 145.56243009 58.74939423 142.74096122 61 140 C61.82628906 139.03320312 62.65257812 138.06640625 63.50390625 137.0703125 C73.32998343 125.2577227 78.36536409 111.59389512 77 96 C76.24314789 92.89429652 75.13825092 89.98263899 74 87 C73.56107903 85.52125436 73.12358781 84.04208363 72.6875 82.5625 C70.92393986 77.23449555 67.99491808 72.71075657 65 68 C64.4946875 67.12988281 63.989375 66.25976562 63.46875 65.36328125 C61.67133415 62.47116267 59.43279738 60.37197745 57 58 C56.505 57.29875 56.01 56.5975 55.5 55.875 C53.5973863 53.49673288 51.66134685 52.50423952 49 51 C47.64303073 50.06656118 46.28919814 49.12855566 44.9375 48.1875 C32.64030518 39.96208849 20.43978363 35.96315603 5.9375 33.8125 C4.78572266 33.63525391 3.63394531 33.45800781 2.44726562 33.27539062 C-0.36750004 32.84324818 -3.18314893 32.4182936 -6 32 C-4.83434358 21.07310646 -3.1178732 10.55919725 0 0 Z " fill="#403995" transform="translate(255,243)"/>
<path d="M0 0 C2.03136168 0.72445423 4.07522004 1.37668367 6.13525391 2.01464844 C12.7354811 4.08210303 18.876153 6.47962225 24.99072266 9.70996094 C26.31552084 10.07574592 27.64785436 10.41739704 28.99072266 10.70996094 C28.99072266 11.36996094 28.99072266 12.02996094 28.99072266 12.70996094 C30.04259766 12.79246094 31.09447266 12.87496094 32.17822266 12.95996094 C36.44586607 13.79949735 37.74339923 14.92654086 40.99072266 17.70996094 C42.39389569 18.50509232 43.81229421 19.2736481 45.24072266 20.02246094 C49.52775266 22.33031209 53.20592607 25.09859702 56.99072266 28.14746094 C59.04607406 29.82252083 59.04607406 29.82252083 61.74072266 31.33496094 C64.61609994 33.09213594 66.6701936 35.27340543 68.99072266 37.70996094 C71.85619264 40.65287605 74.78396861 43.38630878 77.92822266 46.02246094 C81.4507558 49.05223898 84.12794529 52.29398698 86.76416016 56.10839844 C87.91660037 57.85547678 87.91660037 57.85547678 89.99072266 58.70996094 C90.95807407 60.41116514 91.92202935 62.11446947 92.86181641 63.83105469 C94.06383405 65.95258113 94.06383405 65.95258113 96.36572266 68.45996094 C100.04399835 72.7213779 102.42921573 77.72994383 104.99072266 82.70996094 C105.58369141 83.8559375 106.17666016 85.00191406 106.78759766 86.18261719 C111.71306735 95.79444336 115.75540918 105.03459994 118.17822266 115.58496094 C118.34539795 116.30393555 118.51257324 117.02291016 118.68481445 117.76367188 C121.02907288 128.59001525 121.19234134 139.61047352 121.24072266 150.64746094 C121.27166016 152.40606445 121.27166016 152.40606445 121.30322266 154.20019531 C121.33960837 162.43701102 120.16711341 169.77831675 117.99072266 177.70996094 C117.66974609 178.98742187 117.34876953 180.26488281 117.01806641 181.58105469 C115.83634914 185.18012513 114.28699611 188.40558474 112.55322266 191.77246094 C111.65796875 193.52236328 111.65796875 193.52236328 110.74462891 195.30761719 C110.16583984 196.43039062 109.58705078 197.55316406 108.99072266 198.70996094 C108.55373047 199.69609375 108.11673828 200.68222656 107.66650391 201.69824219 C105.48402081 205.62060692 102.70217341 208.6025294 99.61572266 211.83496094 C98.76880859 212.74568359 98.76880859 212.74568359 97.90478516 213.67480469 C93.36494015 218.49839001 88.73140585 222.36427615 82.99072266 225.70996094 C82.30494141 226.18175781 81.61916016 226.65355469 80.91259766 227.13964844 C73.76485944 231.89623682 66.17676832 234.04169021 57.95410156 236.17285156 C56.18726036 236.65619534 54.4507257 237.24721197 52.72119141 237.85058594 C48.99072266 238.70996094 48.99072266 238.70996094 36.99072266 238.70996094 C36.99072266 227.81996094 36.99072266 216.92996094 36.99072266 205.70996094 C41.28072266 205.37996094 45.57072266 205.04996094 49.99072266 204.70996094 C53.71798715 203.64950038 53.71798715 203.64950038 56.67822266 202.14746094 C61.89157251 199.70996094 61.89157251 199.70996094 63.99072266 199.70996094 C63.99072266 199.04996094 63.99072266 198.38996094 63.99072266 197.70996094 C66.97341326 196.18547463 69.80892466 194.77056027 72.99072266 193.70996094 C73.13509766 193.07058594 73.27947266 192.43121094 73.42822266 191.77246094 C73.61384766 191.09183594 73.79947266 190.41121094 73.99072266 189.70996094 C74.63009766 189.40058594 75.26947266 189.09121094 75.92822266 188.77246094 C78.81974298 187.28288986 78.92986222 185.75993469 79.99072266 182.70996094 C80.91884766 180.97746094 80.91884766 180.97746094 81.86572266 179.20996094 C86.96311687 168.99973666 88.64561754 159.10348728 88.42822266 147.77246094 C88.41283447 146.53898926 88.39744629 145.30551758 88.3815918 144.03466797 C88.20116613 135.54398234 87.69750568 127.81090653 84.99072266 119.70996094 C84.77561035 119.03916504 84.56049805 118.36836914 84.33886719 117.67724609 C80.37471485 105.56410986 74.6089894 92.2865913 65.42724609 83.1550293 C63.99072266 81.70996094 63.99072266 81.70996094 62.55322266 79.20996094 C60.94542137 76.63747887 59.41169857 75.46308143 56.99072266 73.70996094 C56.99072266 73.04996094 56.99072266 72.38996094 56.99072266 71.70996094 C56.33072266 71.70996094 55.67072266 71.70996094 54.99072266 71.70996094 C54.66072266 70.71996094 54.33072266 69.72996094 53.99072266 68.70996094 C52.00471929 67.35586773 50.00254723 66.0253847 47.99072266 64.70996094 C46.32405599 63.04329427 44.65738932 61.3766276 42.99072266 59.70996094 C37.00597953 54.22603314 30.47779936 50.03814338 23.49072266 45.95996094 C22.70810059 45.50024902 21.92547852 45.04053711 21.11914062 44.56689453 C16.29275828 41.80881833 11.43403717 39.57160135 6.24511719 37.58105469 C3.50545686 36.52245516 0.85216823 35.2986112 -1.82177734 34.08496094 C-14.52437688 28.83928769 -32.5754277 27.14652022 -46.07177734 30.88964844 C-50.10211042 32.59603946 -53.51316412 35.11284826 -57.00927734 37.70996094 C-57.68990234 38.16371094 -58.37052734 38.61746094 -59.07177734 39.08496094 C-73.54822528 49.03751889 -81.0965343 66.10475248 -84.43115234 82.83105469 C-87.42295613 102.90444091 -82.93786412 123.26278238 -75.00927734 141.70996094 C-77.43963978 144.14032337 -78.86588847 144.28975529 -82.19677734 145.02246094 C-88.5750095 146.51097219 -94.61109019 148.5906181 -100.75927734 150.81933594 C-104.00927734 151.70996094 -104.00927734 151.70996094 -106.28271484 151.75683594 C-109.18752602 149.99554772 -109.59393426 147.35112587 -110.63427734 144.20996094 C-110.84737549 143.57719238 -111.06047363 142.94442383 -111.2800293 142.29248047 C-112.86382183 137.48171829 -113.97148882 132.65941391 -115.00927734 127.70996094 C-115.3415332 127.09822021 -115.67378906 126.48647949 -116.01611328 125.85620117 C-118.26620927 120.99371498 -117.91468053 115.0480895 -118.25927734 109.77246094 C-118.30352844 109.10134277 -118.34777954 108.43022461 -118.39337158 107.73876953 C-120.48959253 74.72648659 -111.87801992 46.93785205 -90.00927734 21.70996094 C-88.0586424 19.97479437 -86.04066584 18.35211835 -84.00927734 16.70996094 C-83.49365234 16.00871094 -82.97802734 15.30746094 -82.44677734 14.58496094 C-80.60974094 12.1888265 -78.63326287 11.20086181 -76.00927734 9.70996094 C-74.97158203 8.92878906 -73.93388672 8.14761719 -72.86474609 7.34277344 C-68.99796053 4.56178288 -64.98532402 2.76642762 -60.57177734 1.02246094 C-59.85957031 0.72791016 -59.14736328 0.43335937 -58.41357422 0.12988281 C-40.1296945 -7.26005949 -18.45478196 -6.64931523 0 0 Z " fill="#403995" transform="translate(342.00927734375,90.2900390625)"/>
<path d="M0 0 C2.62187494 1.04874998 3.79371361 1.64931313 5.25 4.125 C5.4975 4.74375 5.745 5.3625 6 6 C5 7 5 7 2.93359375 7.09765625 C2.10988281 7.08605469 1.28617188 7.07445312 0.4375 7.0625 C-0.38878906 7.05347656 -1.21507812 7.04445312 -2.06640625 7.03515625 C-2.70449219 7.02355469 -3.34257812 7.01195312 -4 7 C-2.79618552 4.50638429 -1.54571278 2.31856917 0 0 Z " fill="#4C4594" transform="translate(220,239)"/>
<path d="M0 0 C0.33 0 0.66 0 1 0 C1.66 6.27 2.32 12.54 3 19 C2.01 18.34 1.02 17.68 0 17 C-0.2208564 14.04935852 -0.28060989 11.31631769 -0.1875 8.375 C-0.17396484 7.57320312 -0.16042969 6.77140625 -0.14648438 5.9453125 C-0.11109051 3.96325622 -0.05728234 1.98154449 0 0 Z " fill="#615B9E" transform="translate(87,211)"/>
<path d="M0 0 C-2.5 1.5 -2.5 1.5 -5 3 C-5.78375 3.53625 -6.5675 4.0725 -7.375 4.625 C-10.57237949 6.29981783 -13.43089753 6.65008799 -17 7 C-14.43471574 3.96098728 -11.57680059 2.75347776 -7.9375 1.25 C-6.87402344 0.80140625 -5.81054688 0.3528125 -4.71484375 -0.109375 C-2 -1 -2 -1 0 0 Z " fill="#59529B" transform="translate(287,91)"/>
<path d="M0 0 C0.33 0.99 0.66 1.98 1 3 C-0.98 4.98 -2.96 6.96 -5 9 C-5.99 8.67 -6.98 8.34 -8 8 C-3.375 2.25 -3.375 2.25 0 0 Z " fill="#534C95" transform="translate(212,250)"/>
<path d="M0 0 C0.66 0 1.32 0 2 0 C2.66 1.98 3.32 3.96 4 6 C1.03 5.67 -1.94 5.34 -5 5 C-4.360625 4.54625 -3.72125 4.0925 -3.0625 3.625 C-0.90297594 2.16078274 -0.90297594 2.16078274 0 0 Z " fill="#544D99" transform="translate(326,115)"/>
<path d="M0 0 C-0.639375 0.268125 -1.27875 0.53625 -1.9375 0.8125 C-4.33131686 1.88667752 -4.33131686 1.88667752 -5 5 C-7.96175123 4.38722388 -9.38058783 3.74627478 -12 2 C-7.8803623 0.70756464 -4.33168317 -0.26252625 0 0 Z " fill="#6A63A7" transform="translate(174,278)"/>
<path d="M0 0 C0.66 0.33 1.32 0.66 2 1 C-0.31 3.64 -2.62 6.28 -5 9 C-5.66 8.67 -6.32 8.34 -7 8 C-4.69 5.36 -2.38 2.72 0 0 Z " fill="#5A529A" transform="translate(100,86)"/>
<path d="M0 0 C0.66 0 1.32 0 2 0 C1.25 4.75 1.25 4.75 -1 7 C-1 6.34 -1 5.68 -1 5 C-1.66 5 -2.32 5 -3 5 C-1.125 1.125 -1.125 1.125 0 0 Z " fill="#4A4397" transform="translate(266,143)"/>
<path d="M0 0 C0.99 0.33 1.98 0.66 3 1 C1.35 2.98 -0.3 4.96 -2 7 C-2.6875 5.1875 -2.6875 5.1875 -3 3 C-1.5625 1.25 -1.5625 1.25 0 0 Z " fill="#484291" transform="translate(246,120)"/>
<path d="M0 0 C-0.57344937 2.86724686 -0.8614515 3.8614515 -3 6 C-3.99 4.68 -4.98 3.36 -6 2 C-3 0 -3 0 0 0 Z " fill="#565096" transform="translate(139,341)"/>
<path d="M0 0 C0.66 0.33 1.32 0.66 2 1 C0.515 4.465 0.515 4.465 -1 8 C-1.66 8 -2.32 8 -3 8 C-1.125 2.25 -1.125 2.25 0 0 Z " fill="#4B4590" transform="translate(360,370)"/>
</svg>
